<svg width="465" height="274" viewBox="0 0 465 274" fill="none" xmlns="http://www.w3.org/2000/svg">
<path d="M137.041 234.407C138.051 235.191 139.221 239.332 139.612 240.677C141.548 247.337 138.692 255.453 135.404 261.323C132.297 266.87 128.868 269.82 122.812 271.513C121.824 271.708 120.618 271.93 119.706 271.525C119.499 270.78 129.618 255.96 130.75 252.405C132.553 246.741 134.955 239.989 137.041 234.407Z" fill="#3C5947"/>
<path d="M191.156 106.373C193.976 106.132 198.5 105.743 200.312 108.5C200.867 112.499 189.633 116.172 186.424 117.005C182.134 117.86 179.858 117.808 176.385 115.04C179.797 107.798 183.529 107.147 191.156 106.373Z" fill="#3C5947"/>
<path fill-rule="evenodd" clip-rule="evenodd" d="M86.474 189.582C108.223 183.211 103.995 150.248 86.151 152.582C84.2763 152.937 83.2945 153.192 81.4912 153.919C69.7622 158.646 66.8612 180.477 77.4237 187.67C80.076 189.462 83.3232 190.148 86.474 189.582ZM86.3555 160.289C96.0338 159.441 95.3933 176.664 85.7348 181.62C77.104 183.354 75.9895 165.274 86.3555 160.289Z" fill="#3C5947"/>
<path fill-rule="evenodd" clip-rule="evenodd" d="M64.198 142.841C64.0661 142.852 63.8899 142.868 63.6427 142.877C54.3215 143.779 46.869 146.03 39.092 151.572C27.3602 159.932 20.0265 174.296 20.369 188.736C20.376 189.027 20.5187 189.526 20.6115 189.806C21.2032 190.207 21.4353 190.215 21.9691 190.231C22.1298 190.236 22.3177 190.242 22.551 190.26C34.909 189.788 45.6777 186.132 54.2742 176.812C61.9617 168.499 66.036 157.475 65.6027 146.161C65.5607 145.015 65.4602 144.304 65.059 143.237C65.0046 143.188 64.9572 143.144 64.9152 143.105C64.7461 142.949 64.665 142.874 64.5702 142.844C64.4838 142.816 64.3856 142.824 64.198 142.841ZM56.847 152.253L56.0855 152.285C44.237 155.35 34.6125 166.065 30.6895 177.422C30.3513 178.401 29.845 179.885 30.189 180.879C30.5047 180.923 30.582 180.958 30.6567 180.953C30.7249 180.948 30.7909 180.911 31.0345 180.819C41.155 177.92 48.1355 172.096 53.26 162.925C54.4875 160.728 56.8708 154.95 57.0453 152.63L56.847 152.253Z" fill="#3C5947"/>
<path fill-rule="evenodd" clip-rule="evenodd" d="M31.0745 65.1315C28.346 64.5938 25.5632 64.3795 22.7845 64.4933C21.5797 75.1198 26.3455 87.6335 32.9832 96.0383C40.5445 105.612 51.721 110.98 63.6265 113.042C64.0742 113.119 64.4247 113.089 64.8035 112.857C69.2435 90.0815 53.4133 69.368 31.0745 65.1315ZM31.9213 74.2665C45.2658 76.848 56.6828 90.4435 57.8945 103.778C46.065 100.45 33.655 86.3555 31.9213 74.2665Z" fill="#3C5947"/>
<path fill-rule="evenodd" clip-rule="evenodd" d="M69.0247 18.0527C65.6215 16.9004 63.057 16.1282 59.45 15.8551C54.8915 41.1145 69.2607 67.6173 95.6232 72.6945C97.212 73.0005 101.625 73.6923 102.884 72.9848L102.976 72.8208C106.343 63.32 104.645 53.8478 100.401 45.011C94.081 31.8523 82.744 22.6978 69.0247 18.0527ZM81.916 35.6263C77.8483 32.0783 73.0805 29.4245 67.9217 27.8368C68.989 40.1515 73.275 48.9313 82.75 57.2738C86.0942 60.2183 92.1072 64.2813 96.5027 65.1168C95.7762 53.7325 90.5233 43.1125 81.916 35.6263Z" fill="#3C5947"/>
<path fill-rule="evenodd" clip-rule="evenodd" d="M93.9285 82.1118C90.497 80.3098 87.3977 79.755 83.579 80.0635C61.4095 84.9415 76.5887 119.982 94.4525 115.761C94.5965 115.727 94.7392 115.689 94.8812 115.648C104.498 112.778 107.388 103.938 104.584 94.8518C102.864 89.3595 99.03 84.7765 93.9285 82.1118ZM84.4635 87.784C95.7545 87.174 102.665 103.893 93.7002 108.073C83.1315 108.162 75.3788 92.1913 84.4635 87.784Z" fill="#3C5947"/>
<path fill-rule="evenodd" clip-rule="evenodd" d="M163.046 86.1765C170.25 76.0533 169.418 57.6845 153.988 56.6145C129.51 59.6233 129.232 95.1418 148.778 94.798C155.063 93.706 159.259 91.4975 163.046 86.1765ZM152.807 64.822C162.972 63.9048 160.983 82.482 149.466 86.6838C139.03 87.7315 141.244 68.8953 152.807 64.822Z" fill="#3C5947"/>
<path fill-rule="evenodd" clip-rule="evenodd" d="M217.743 20.1704C217.698 20.1484 217.644 20.1445 217.527 20.1358C217.469 20.1316 217.396 20.1262 217.301 20.117C205.113 21.8441 194.078 28.2548 186.541 37.9875C180.925 45.3848 178.054 55.6365 179.342 64.8538C179.782 67.9835 180.605 71.0473 181.791 73.9763C184.64 74.5975 196.024 69.2053 198.99 67.2893C208.719 61.0035 215.65 51.8618 218.171 40.4525C219.298 35.351 219.855 25.4063 218.149 20.5358C218.012 20.4177 217.93 20.3366 217.873 20.2802C217.814 20.2211 217.781 20.1892 217.743 20.1704ZM210.077 31.8788L209.795 31.5665C200.41 35.2153 194.707 40.1298 190.271 49.487C188.564 53.0873 187.104 59.4635 187.757 63.3863L188.042 63.7853C199.578 58.8508 210.648 44.7855 210.077 31.8788Z" fill="#3C5947"/>
<path fill-rule="evenodd" clip-rule="evenodd" d="M186.952 151.866C208.116 153.329 210.537 187.74 190.938 190.099C171.145 189.916 165.38 154.441 186.952 151.866ZM185.953 159.793C195.953 159.308 200.147 177.177 191.432 182C181.786 182.229 177.247 163.952 185.953 159.793Z" fill="#3C5947"/>
<path fill-rule="evenodd" clip-rule="evenodd" d="M218.858 146.535C215.952 146.104 213.008 146.069 210.091 146.067C208.565 171.837 228.055 191.247 253.71 190.537C254.26 186.749 253.625 182.234 252.765 178.524C249.038 162.447 235.33 148.978 218.858 146.535ZM245.143 181.739C242.473 168.861 231.02 156.961 218.013 154.455C219.315 162.793 225.525 171.097 232.193 176.066C236.265 179.101 240.258 180.602 245.143 181.739Z" fill="#3C5947"/>
<path fill-rule="evenodd" clip-rule="evenodd" d="M161.825 0.0789729C162.735 -0.0352546 163.21 -0.091242 163.876 0.385273C165.728 3.5561 163.838 15.1571 162.892 18.8712C159.504 32.1568 151.41 43.4135 139.49 50.3023C137.747 51.3096 135.968 52.0966 134.186 52.8852C132.628 53.5751 131.066 54.2664 129.522 55.1075C127.44 56.2415 126.895 58.4239 126.347 60.6213C126.259 60.9736 126.17 61.3262 126.076 61.675C124.695 66.7743 123.722 72.1063 123.232 77.3733C121.176 99.4558 127.207 134.847 138.674 153.898C139.439 150.459 140.521 146.912 141.604 143.359C142.647 139.938 143.691 136.511 144.457 133.17C144.895 131.259 145.864 128.232 146.609 126.409C156.224 102.872 180.252 84.4585 203.871 76.538L204.062 76.474C205.568 75.9693 207.078 75.4634 208.519 74.7855C209.92 74.0917 211.201 73.1786 212.483 72.2648C214.053 71.1456 215.625 70.025 217.424 69.3043C229.113 63.8253 243.635 62.7748 255.788 67.3218C254.3 75.9055 251.965 82.3915 245.588 88.624C238.535 95.5298 228.99 99.29 219.123 99.0493C214.313 98.9683 210.926 97.9563 207.593 94.4958C211.005 89.8007 212.585 90 216.726 90.5224C217.575 90.6296 218.532 90.7504 219.635 90.8453C221.438 91.0003 225.343 90.342 227.18 89.786C236.713 86.9043 240.593 82.068 245.133 73.8723C234.268 72.1975 226.393 73.1945 216.614 78.9093C215.706 79.4398 214.72 80.248 213.735 81.0558C212.45 82.1098 211.165 83.1632 210.055 83.5983C208.787 84.0956 207.326 84.5147 205.853 84.9377C204.44 85.3433 203.015 85.7524 201.734 86.2375C196.904 88.0665 191.759 90.4763 187.271 92.9908C170.54 102.253 158.262 117.881 153.221 136.328C151.547 142.333 146.101 163.318 148.968 168.388C149.347 168.491 149.636 168.553 149.955 168.065C151.232 166.111 152.194 164.216 153.147 162.34C154.398 159.877 155.632 157.445 157.542 154.952C167.65 141.759 175.326 135.83 190.472 129.454C194.684 127.818 198.713 126.65 202.835 125.456C204.699 124.916 206.582 124.37 208.51 123.774C210.334 123.069 212.033 121.872 213.698 120.698C214.677 120.009 215.644 119.327 216.619 118.758C235.235 107.891 256.5 107.926 273.615 121.206C270.813 124.637 267.635 128.181 264.125 130.896C253.655 138.993 239.95 141.294 227.168 138.378C224.464 137.761 221.893 136.851 219.302 135.934C218.369 135.604 217.433 135.273 216.488 134.954C211.986 133.436 205.965 134.364 201.351 135.303C185.184 138.592 169.506 150.428 160.637 164.18C149.643 181.229 148.524 202.338 152.777 221.736C157.997 245.542 169.64 260.26 189.799 273.28C170.353 273.645 157.454 260.35 149.626 243.649C145.744 235.445 143.141 226.695 141.907 217.703C141.334 213.749 140.947 209.834 140.561 205.932C139.885 199.093 139.213 192.294 137.552 185.396C136.106 177.839 133.257 170.96 130.394 164.048C128.758 160.098 127.117 156.137 125.731 152.033C117.263 126.953 111.301 98.1728 117.677 71.9825C118.54 68.4374 119.874 65.7609 121.21 63.0802C122.124 61.2475 123.038 59.4128 123.804 57.2973C119.358 50.3888 117.528 44.9513 118.728 36.5588C121.722 15.6275 142.474 3.81247 161.825 0.0789729ZM155.062 11.8251L154.801 11.5978C144.506 14.5313 135.965 20.0972 130.558 29.5923C127.556 34.8653 125.509 42.609 125.705 48.661C125.792 48.7258 125.843 48.773 125.879 48.8063C125.958 48.8786 125.965 48.885 126.111 48.8638C137.577 43.6525 148.496 32.1935 152.849 20.3595C153.651 18.1774 155.068 14.1255 155.062 11.8251ZM260.455 122.842C254.58 120.363 247.033 118.388 240.608 119.37C232.048 120.18 222.998 123.081 217.061 129.567C223.39 131.049 231.183 132.119 237.67 131.349C247.135 130.609 252.995 128.66 260.455 122.842Z" fill="#3C5947"/>
<path fill-rule="evenodd" clip-rule="evenodd" d="M23.8472 111.367L24.1757 111.309C34.8402 110.697 44.3772 112.892 53.681 118.144C54.7573 118.751 55.8496 119.469 56.9533 120.195C58.9988 121.539 61.0834 122.909 63.178 123.65C66.222 124.728 69.5661 125.532 72.8111 126.312C73.9549 126.587 75.0863 126.859 76.188 127.139C86.613 129.788 95.5013 133.865 103.884 140.719C121.974 155.508 129.206 177.745 131.832 200.116C134.792 223.133 127.884 247.133 111.769 264.065C109.736 266.202 107.457 267.93 105.183 269.654C103.361 271.036 101.542 272.415 99.8558 274H80.9223C104.491 263.157 120.743 239.585 122.687 213.708C124.27 192.656 121.969 173.29 108.227 157.028C93.0687 139.089 69.5248 129.266 46.818 137.644C41.9083 139.419 34.0747 139.693 28.8395 139.114C16.1405 137.708 8.0105 132.545 0 122.808C6.76875 116.069 14.348 112.443 23.8472 111.367ZM55.2055 128.14C49.453 122.001 33.9615 118.619 25.8097 119.618C20.3487 120.152 17.337 121.101 12.4905 123.632C21.5487 130.677 31.5192 131.284 42.7422 130.988C48.0557 130.424 50.3445 130.175 55.2055 128.14Z" fill="#3C5947"/>
<path d="M126 274V129H222.053H227.463H347.19H347.474H465V150.807L396.794 242.281H464.718V274H346.908V252.193L415.114 160.719H347.474H347.19H304.07V274H265.457V160.719H227.463H222.053H165.176V185.641H221.263V217.359H165.176V274H126Z" fill="black"/>
</svg>
